<?xml version="1.0" encoding="UTF-8" standalone="no"?>
<!DOCTYPE svg PUBLIC "-//W3C//DTD SVG 1.1//EN"
 "http://www.w3.org/Graphics/SVG/1.1/DTD/svg11.dtd">
<!-- Generated by graphviz version 2.43.0 (0)
 -->
<!-- Title: G Pages: 1 -->
<svg width="234pt" height="426pt"
 viewBox="0.00 0.00 234.19 425.82" xmlns="http://www.w3.org/2000/svg" xmlns:xlink="http://www.w3.org/1999/xlink">
<g id="graph0" class="graph" transform="scale(1 1) rotate(0) translate(4 421.82)">
<title>G</title><style>.edge>path:hover{stroke-width:8}</style>
<polygon fill="white" stroke="transparent" points="-4,4 -4,-421.82 230.19,-421.82 230.19,4 -4,4"/>
<!-- ai_cdss_config -->
<g id="node1" class="node">
<title>ai_cdss_config</title><style>.edge>path:hover{stroke-width:8}</style>
<ellipse fill="#b65353" stroke="black" cx="50.04" cy="-399.82" rx="50.07" ry="18"/>
<text text-anchor="middle" x="50.04" y="-397.32" font-family="Helvetica,sans-Serif" font-size="10.00" fill="#ffffff">ai_cdss.config</text>
</g>
<!-- ai_cdss_services_processing -->
<g id="node7" class="node">
<title>ai_cdss_services_processing</title><style>.edge>path:hover{stroke-width:8}</style>
<ellipse fill="#ac4949" stroke="black" cx="57.04" cy="-279.83" rx="48.58" ry="28.98"/>
<text text-anchor="middle" x="57.04" y="-288.33" font-family="Helvetica,sans-Serif" font-size="10.00" fill="#ffffff">ai_cdss.</text>
<text text-anchor="middle" x="57.04" y="-277.33" font-family="Helvetica,sans-Serif" font-size="10.00" fill="#ffffff">services.</text>
<text text-anchor="middle" x="57.04" y="-266.33" font-family="Helvetica,sans-Serif" font-size="10.00" fill="#ffffff">processing</text>
</g>
<!-- ai_cdss_config&#45;&gt;ai_cdss_services_processing -->
<g id="edge1" class="edge">
<title>ai_cdss_config&#45;&gt;ai_cdss_services_processing</title><style>.edge>path:hover{stroke-width:8}</style>
<path fill="none" stroke="black" d="M51.05,-381.66C52.03,-365.29 53.52,-340.07 54.77,-318.95"/>
<polygon fill="#b65353" stroke="black" points="58.27,-319.16 55.37,-308.97 51.28,-318.74 58.27,-319.16"/>
</g>
<!-- ai_cdss_models -->
<g id="node2" class="node">
<title>ai_cdss_models</title><style>.edge>path:hover{stroke-width:8}</style>
<ellipse fill="#b65353" stroke="black" cx="172.04" cy="-399.82" rx="54.31" ry="18"/>
<text text-anchor="middle" x="172.04" y="-397.32" font-family="Helvetica,sans-Serif" font-size="10.00" fill="#ffffff">ai_cdss.models</text>
</g>
<!-- ai_cdss_services_data -->
<g id="node5" class="node">
<title>ai_cdss_services_data</title><style>.edge>path:hover{stroke-width:8}</style>
<ellipse fill="#ac4949" stroke="black" cx="166.04" cy="-279.83" rx="42.35" ry="28.98"/>
<text text-anchor="middle" x="166.04" y="-288.33" font-family="Helvetica,sans-Serif" font-size="10.00" fill="#ffffff">ai_cdss.</text>
<text text-anchor="middle" x="166.04" y="-277.33" font-family="Helvetica,sans-Serif" font-size="10.00" fill="#ffffff">services.</text>
<text text-anchor="middle" x="166.04" y="-266.33" font-family="Helvetica,sans-Serif" font-size="10.00" fill="#ffffff">data</text>
</g>
<!-- ai_cdss_models&#45;&gt;ai_cdss_services_data -->
<g id="edge2" class="edge">
<title>ai_cdss_models&#45;&gt;ai_cdss_services_data</title><style>.edge>path:hover{stroke-width:8}</style>
<path fill="none" stroke="black" d="M171.16,-381.66C170.34,-365.37 169.06,-340.3 167.99,-319.24"/>
<polygon fill="#b65353" stroke="black" points="171.47,-318.78 167.47,-308.97 164.48,-319.13 171.47,-318.78"/>
</g>
<!-- ai_cdss_recommend -->
<g id="node3" class="node">
<title>ai_cdss_recommend</title><style>.edge>path:hover{stroke-width:8}</style>
<ellipse fill="#995252" stroke="black" cx="145.04" cy="-21.21" rx="53.07" ry="21.43"/>
<text text-anchor="middle" x="145.04" y="-24.21" font-family="Helvetica,sans-Serif" font-size="10.00" fill="#ffffff">ai_cdss.</text>
<text text-anchor="middle" x="145.04" y="-13.21" font-family="Helvetica,sans-Serif" font-size="10.00" fill="#ffffff">recommend</text>
</g>
<!-- ai_cdss_services -->
<g id="node4" class="node">
<title>ai_cdss_services</title><style>.edge>path:hover{stroke-width:8}</style>
<ellipse fill="#c24747" stroke="black" cx="179.04" cy="-99.64" rx="40.11" ry="21.43"/>
<text text-anchor="middle" x="179.04" y="-102.64" font-family="Helvetica,sans-Serif" font-size="10.00" fill="#ffffff">ai_cdss.</text>
<text text-anchor="middle" x="179.04" y="-91.64" font-family="Helvetica,sans-Serif" font-size="10.00" fill="#ffffff">services</text>
</g>
<!-- ai_cdss_services&#45;&gt;ai_cdss_recommend -->
<g id="edge3" class="edge">
<title>ai_cdss_services&#45;&gt;ai_cdss_recommend</title><style>.edge>path:hover{stroke-width:8}</style>
<path fill="none" stroke="black" d="M170.1,-78.56C166.43,-70.31 162.11,-60.59 158.1,-51.57"/>
<polygon fill="#c24747" stroke="black" points="161.17,-49.87 153.91,-42.16 154.78,-52.72 161.17,-49.87"/>
</g>
<!-- ai_cdss_services_pipeline -->
<g id="node6" class="node">
<title>ai_cdss_services_pipeline</title><style>.edge>path:hover{stroke-width:8}</style>
<ellipse fill="#9d4343" stroke="black" cx="111.04" cy="-185.84" rx="42.35" ry="28.98"/>
<text text-anchor="middle" x="111.04" y="-194.34" font-family="Helvetica,sans-Serif" font-size="10.00" fill="#ffffff">ai_cdss.</text>
<text text-anchor="middle" x="111.04" y="-183.34" font-family="Helvetica,sans-Serif" font-size="10.00" fill="#ffffff">services.</text>
<text text-anchor="middle" x="111.04" y="-172.34" font-family="Helvetica,sans-Serif" font-size="10.00" fill="#ffffff">pipeline</text>
</g>
<!-- ai_cdss_services_data&#45;&gt;ai_cdss_services_pipeline -->
<g id="edge4" class="edge">
<title>ai_cdss_services_data&#45;&gt;ai_cdss_services_pipeline</title><style>.edge>path:hover{stroke-width:8}</style>
<path fill="none" stroke="black" d="M150.42,-252.71C144.67,-243.1 138.07,-232.05 131.93,-221.79"/>
<polygon fill="#ac4949" stroke="black" points="134.83,-219.81 126.69,-213.02 128.82,-223.4 134.83,-219.81"/>
</g>
<!-- ai_cdss_services_pipeline&#45;&gt;ai_cdss_recommend -->
<g id="edge5" class="edge">
<title>ai_cdss_services_pipeline&#45;&gt;ai_cdss_recommend</title><style>.edge>path:hover{stroke-width:8}</style>
<path fill="none" stroke="black" d="M115.4,-156.71C118.89,-135.18 124.17,-104.81 130.04,-78.43 131.94,-69.87 134.27,-60.66 136.53,-52.22"/>
<polygon fill="#9d4343" stroke="black" points="139.95,-52.98 139.21,-42.41 133.2,-51.13 139.95,-52.98"/>
</g>
<!-- ai_cdss_services_processing&#45;&gt;ai_cdss_services_pipeline -->
<g id="edge6" class="edge">
<title>ai_cdss_services_processing&#45;&gt;ai_cdss_services_pipeline</title><style>.edge>path:hover{stroke-width:8}</style>
<path fill="none" stroke="black" d="M72.66,-252.22C78.24,-242.7 84.63,-231.82 90.57,-221.71"/>
<polygon fill="#ac4949" stroke="black" points="93.59,-223.47 95.64,-213.07 87.56,-219.92 93.59,-223.47"/>
</g>
</g>
</svg>
