<?xml version="1.0" encoding="UTF-8" standalone="no"?>
<!DOCTYPE svg PUBLIC "-//W3C//DTD SVG 1.1//EN"
 "http://www.w3.org/Graphics/SVG/1.1/DTD/svg11.dtd">
<!-- Generated by graphviz version 2.43.0 (0)
 -->
<!-- Title: G Pages: 1 -->
<svg width="330pt" height="426pt"
 viewBox="0.00 0.00 330.46 425.82" xmlns="http://www.w3.org/2000/svg" xmlns:xlink="http://www.w3.org/1999/xlink">
<g id="graph0" class="graph" transform="scale(1 1) rotate(0) translate(4 421.82)">
<title>G</title><style>.edge>path:hover{stroke-width:8}</style>
<polygon fill="white" stroke="transparent" points="-4,4 -4,-421.82 326.46,-421.82 326.46,4 -4,4"/>
<!-- ai_cdss_config -->
<g id="node1" class="node">
<title>ai_cdss_config</title><style>.edge>path:hover{stroke-width:8}</style>
<ellipse fill="#b65353" stroke="black" cx="50.04" cy="-399.82" rx="50.07" ry="18"/>
<text text-anchor="middle" x="50.04" y="-397.32" font-family="Helvetica,sans-Serif" font-size="10.00" fill="#ffffff">ai_cdss.config</text>
</g>
<!-- ai_cdss_services_data -->
<g id="node5" class="node">
<title>ai_cdss_services_data</title><style>.edge>path:hover{stroke-width:8}</style>
<ellipse fill="#a44646" stroke="black" cx="54.04" cy="-279.83" rx="42.35" ry="28.98"/>
<text text-anchor="middle" x="54.04" y="-288.33" font-family="Helvetica,sans-Serif" font-size="10.00" fill="#ffffff">ai_cdss.</text>
<text text-anchor="middle" x="54.04" y="-277.33" font-family="Helvetica,sans-Serif" font-size="10.00" fill="#ffffff">services.</text>
<text text-anchor="middle" x="54.04" y="-266.33" font-family="Helvetica,sans-Serif" font-size="10.00" fill="#ffffff">data</text>
</g>
<!-- ai_cdss_config&#45;&gt;ai_cdss_services_data -->
<g id="edge1" class="edge">
<title>ai_cdss_config&#45;&gt;ai_cdss_services_data</title><style>.edge>path:hover{stroke-width:8}</style>
<path fill="none" stroke="black" d="M50.62,-381.66C51.17,-365.37 52.02,-340.3 52.73,-319.24"/>
<polygon fill="#b65353" stroke="black" points="56.24,-319.08 53.08,-308.97 49.25,-318.84 56.24,-319.08"/>
</g>
<!-- ai_cdss_models -->
<g id="node2" class="node">
<title>ai_cdss_models</title><style>.edge>path:hover{stroke-width:8}</style>
<ellipse fill="#c24747" stroke="black" cx="172.04" cy="-399.82" rx="54.31" ry="18"/>
<text text-anchor="middle" x="172.04" y="-397.32" font-family="Helvetica,sans-Serif" font-size="10.00" fill="#ffffff">ai_cdss.models</text>
</g>
<!-- ai_cdss_models&#45;&gt;ai_cdss_services_data -->
<g id="edge2" class="edge">
<title>ai_cdss_models&#45;&gt;ai_cdss_services_data</title><style>.edge>path:hover{stroke-width:8}</style>
<path fill="none" stroke="black" d="M173.01,-381.46C172.99,-370.79 171.81,-357.05 167.04,-345.82"/>
<path fill="none" stroke="black" d="M167.04,-344.82C166.21,-342.87 127.37,-321.13 95.46,-303.53"/>
<polygon fill="#c24747" stroke="black" points="97.12,-300.45 86.68,-298.69 93.75,-306.58 97.12,-300.45"/>
</g>
<!-- ai_cdss_services_prescription -->
<g id="node7" class="node">
<title>ai_cdss_services_prescription</title><style>.edge>path:hover{stroke-width:8}</style>
<ellipse fill="#ac4949" stroke="black" cx="167.04" cy="-279.83" rx="52.15" ry="28.98"/>
<text text-anchor="middle" x="167.04" y="-288.33" font-family="Helvetica,sans-Serif" font-size="10.00" fill="#ffffff">ai_cdss.</text>
<text text-anchor="middle" x="167.04" y="-277.33" font-family="Helvetica,sans-Serif" font-size="10.00" fill="#ffffff">services.</text>
<text text-anchor="middle" x="167.04" y="-266.33" font-family="Helvetica,sans-Serif" font-size="10.00" fill="#ffffff">prescription</text>
</g>
<!-- ai_cdss_models&#45;&gt;ai_cdss_services_prescription -->
<g id="edge3" class="edge">
<title>ai_cdss_models&#45;&gt;ai_cdss_services_prescription</title><style>.edge>path:hover{stroke-width:8}</style>
<path fill="none" stroke="black" d="M167.04,-344.82C163.63,-336.81 162.31,-327.71 162.12,-318.93"/>
<polygon fill="#c24747" stroke="black" points="165.62,-318.95 162.35,-308.87 158.62,-318.79 165.62,-318.95"/>
</g>
<!-- ai_cdss_recommend -->
<g id="node3" class="node">
<title>ai_cdss_recommend</title><style>.edge>path:hover{stroke-width:8}</style>
<ellipse fill="#995252" stroke="black" cx="201.04" cy="-21.21" rx="53.07" ry="21.43"/>
<text text-anchor="middle" x="201.04" y="-24.21" font-family="Helvetica,sans-Serif" font-size="10.00" fill="#ffffff">ai_cdss.</text>
<text text-anchor="middle" x="201.04" y="-13.21" font-family="Helvetica,sans-Serif" font-size="10.00" fill="#ffffff">recommend</text>
</g>
<!-- ai_cdss_services -->
<g id="node4" class="node">
<title>ai_cdss_services</title><style>.edge>path:hover{stroke-width:8}</style>
<ellipse fill="#c24747" stroke="black" cx="235.04" cy="-99.64" rx="40.11" ry="21.43"/>
<text text-anchor="middle" x="235.04" y="-102.64" font-family="Helvetica,sans-Serif" font-size="10.00" fill="#ffffff">ai_cdss.</text>
<text text-anchor="middle" x="235.04" y="-91.64" font-family="Helvetica,sans-Serif" font-size="10.00" fill="#ffffff">services</text>
</g>
<!-- ai_cdss_services&#45;&gt;ai_cdss_recommend -->
<g id="edge4" class="edge">
<title>ai_cdss_services&#45;&gt;ai_cdss_recommend</title><style>.edge>path:hover{stroke-width:8}</style>
<path fill="none" stroke="black" d="M226.1,-78.56C222.43,-70.31 218.11,-60.59 214.1,-51.57"/>
<polygon fill="#c24747" stroke="black" points="217.17,-49.87 209.91,-42.16 210.78,-52.72 217.17,-49.87"/>
</g>
<!-- ai_cdss_services_pipeline -->
<g id="node6" class="node">
<title>ai_cdss_services_pipeline</title><style>.edge>path:hover{stroke-width:8}</style>
<ellipse fill="#964040" stroke="black" cx="167.04" cy="-185.84" rx="42.35" ry="28.98"/>
<text text-anchor="middle" x="167.04" y="-194.34" font-family="Helvetica,sans-Serif" font-size="10.00" fill="#ffffff">ai_cdss.</text>
<text text-anchor="middle" x="167.04" y="-183.34" font-family="Helvetica,sans-Serif" font-size="10.00" fill="#ffffff">services.</text>
<text text-anchor="middle" x="167.04" y="-172.34" font-family="Helvetica,sans-Serif" font-size="10.00" fill="#ffffff">pipeline</text>
</g>
<!-- ai_cdss_services_data&#45;&gt;ai_cdss_services_pipeline -->
<g id="edge5" class="edge">
<title>ai_cdss_services_data&#45;&gt;ai_cdss_services_pipeline</title><style>.edge>path:hover{stroke-width:8}</style>
<path fill="none" stroke="black" d="M80.82,-257.03C96.3,-244.43 115.94,-228.44 132.56,-214.91"/>
<polygon fill="#a44646" stroke="black" points="134.9,-217.51 140.45,-208.49 130.48,-212.08 134.9,-217.51"/>
</g>
<!-- ai_cdss_services_pipeline&#45;&gt;ai_cdss_recommend -->
<g id="edge6" class="edge">
<title>ai_cdss_services_pipeline&#45;&gt;ai_cdss_recommend</title><style>.edge>path:hover{stroke-width:8}</style>
<path fill="none" stroke="black" d="M171.4,-156.71C174.89,-135.18 180.17,-104.81 186.04,-78.43 187.94,-69.87 190.27,-60.66 192.53,-52.22"/>
<polygon fill="#964040" stroke="black" points="195.95,-52.98 195.21,-42.41 189.2,-51.13 195.95,-52.98"/>
</g>
<!-- ai_cdss_services_prescription&#45;&gt;ai_cdss_services_pipeline -->
<g id="edge7" class="edge">
<title>ai_cdss_services_prescription&#45;&gt;ai_cdss_services_pipeline</title><style>.edge>path:hover{stroke-width:8}</style>
<path fill="none" stroke="black" d="M167.04,-250.73C167.04,-242.69 167.04,-233.79 167.04,-225.25"/>
<polygon fill="#ac4949" stroke="black" points="170.54,-225.09 167.04,-215.09 163.54,-225.09 170.54,-225.09"/>
</g>
<!-- ai_cdss_services_scoring -->
<g id="node8" class="node">
<title>ai_cdss_services_scoring</title><style>.edge>path:hover{stroke-width:8}</style>
<ellipse fill="#b65353" stroke="black" cx="280.04" cy="-279.83" rx="42.35" ry="28.98"/>
<text text-anchor="middle" x="280.04" y="-288.33" font-family="Helvetica,sans-Serif" font-size="10.00" fill="#ffffff">ai_cdss.</text>
<text text-anchor="middle" x="280.04" y="-277.33" font-family="Helvetica,sans-Serif" font-size="10.00" fill="#ffffff">services.</text>
<text text-anchor="middle" x="280.04" y="-266.33" font-family="Helvetica,sans-Serif" font-size="10.00" fill="#ffffff">scoring</text>
</g>
<!-- ai_cdss_services_scoring&#45;&gt;ai_cdss_services_pipeline -->
<g id="edge8" class="edge">
<title>ai_cdss_services_scoring&#45;&gt;ai_cdss_services_pipeline</title><style>.edge>path:hover{stroke-width:8}</style>
<path fill="none" stroke="black" d="M253.26,-257.03C237.78,-244.43 218.14,-228.44 201.51,-214.91"/>
<polygon fill="#b65353" stroke="black" points="203.59,-212.08 193.62,-208.49 199.17,-217.51 203.59,-212.08"/>
</g>
</g>
</svg>
